HIERARCHY
ROOT Hips
{
	OFFSET 0.00000 0.00000 0.00000
	CHANNELS 6 Xposition Yposition Zposition Zrotation Yrotation Xrotation 
	JOINT LHipJoint
	{
		OFFSET 0 0 0
		CHANNELS 3 Zrotation Yrotation Xrotation
		JOINT LeftHip
		{
			OFFSET 1.32989 -1.57253 0.78074
			CHANNELS 3 Zrotation Yrotation Xrotation
			JOINT LeftKnee
			{
				OFFSET 2.24323 -6.16323 0.00000
				CHANNELS 3 Zrotation Yrotation Xrotation
				JOINT LeftAnkle
				{
					OFFSET 2.32677 -6.39275 0.00000
					CHANNELS 3 Zrotation Yrotation Xrotation
					JOINT LeftToe
					{
						OFFSET 0.18686 -0.51340 1.95973
						CHANNELS 3 Zrotation Yrotation Xrotation
						End Site
						{
							OFFSET 0.00000 -0.00000 1.02033
						}
					}
				}
			}
		}
	}
	JOINT RHipJoint
	{
		OFFSET 0 0 0
		CHANNELS 3 Zrotation Yrotation Xrotation
		JOINT RightHip
		{
			OFFSET -1.27392 -1.57253 0.78074
			CHANNELS 3 Zrotation Yrotation Xrotation
			JOINT RightKnee
			{
				OFFSET -2.19978 -6.04385 0.00000
				CHANNELS 3 Zrotation Yrotation Xrotation
				JOINT RightAnkle
				{
					OFFSET -2.29380 -6.30216 0.00000
					CHANNELS 3 Zrotation Yrotation Xrotation
					JOINT RightToe
					{
						OFFSET -0.24624 -0.67655 1.94854
						CHANNELS 3 Zrotation Yrotation Xrotation
						End Site
						{
							OFFSET -0.00000 -0.00000 1.03267
						}
					}
				}
			}
		}
	}
	JOINT lowerback
	{
		OFFSET 0 0 0
		CHANNELS 3 Zrotation Yrotation Xrotation
		JOINT Chest
		{
			OFFSET -0.05982 2.08655 0.02100
			CHANNELS 3 Zrotation Yrotation Xrotation
			JOINT Chest2
			{
				OFFSET 0.04735 2.08455 -0.01795
				CHANNELS 3 Zrotation Yrotation Xrotation
				JOINT lowerneck
				{
					OFFSET 0 0 0
					CHANNELS 3 Zrotation Yrotation Xrotation
					JOINT Neck
					{
						OFFSET -0.10038 1.43781 0.03084
						CHANNELS 3 Zrotation Yrotation Xrotation
						JOINT Head
						{
							OFFSET 0.07701 1.43632 -0.18495
							CHANNELS 3 Zrotation Yrotation Xrotation
							End Site
							{
								OFFSET 0.02744 1.45633 -0.07361
							}
						}
					}
				}
				JOINT LeftCollar
				{
					OFFSET 0 0 0
					CHANNELS 3 Zrotation Yrotation Xrotation
					JOINT LeftShoulder
					{
						OFFSET 2.75061 0.74389 0.25227
CHANNELS 3 Zrotation Xrotation Yrotation
						JOINT LeftElbow
						{
OFFSET 0 -4.369010 0.000000
CHANNELS 3 Zrotation Xrotation Yrotation
							JOINT LeftWrist
							{
OFFSET 0 -3.217370 -0.000000
CHANNELS 3 Zrotation Xrotation Yrotation
								JOINT lhand
								{
									OFFSET 0 0 0
CHANNELS 3 Zrotation Xrotation Yrotation
									JOINT LFingers
									{
OFFSET 0 -0.564310 0.000000
CHANNELS 3 Zrotation Xrotation Yrotation
										End Site
										{
OFFSET 0 -0.454960 0.000000
										}
									}
								}
								JOINT LThumb
								{
OFFSET 0 0.000000 0.000000
CHANNELS 3 Zrotation Xrotation Yrotation
									End Site
									{
OFFSET 0 -0.461910 0.461910
									}
								}
							}
						}
					}
				}
				JOINT RightCollar
				{
					OFFSET 0 0 0
					CHANNELS 3 Zrotation Yrotation Xrotation
					JOINT RightShoulder
					{
						OFFSET -2.97379 0.79094 0.48377
CHANNELS 3 Zrotation Xrotation Yrotation
						JOINT RightElbow
						{
OFFSET 0 -4.341180 -0.000000
CHANNELS 3 Zrotation Xrotation Yrotation
							JOINT RightWrist
							{
OFFSET 0 -3.095310 0.000000
CHANNELS 3 Zrotation Xrotation Yrotation
								JOINT rhand
								{
									OFFSET 0 0 0
CHANNELS 3 Zrotation Xrotation Yrotation
									JOINT RFingers
									{
OFFSET 0 -0.597450 0.000000
CHANNELS 3 Zrotation Xrotation Yrotation
										End Site
										{
OFFSET 0 -0.481680 0.000000
										}
									}
								}
								JOINT RThumb
								{
OFFSET 0 0.000000 0.000000
CHANNELS 3 Zrotation Xrotation Yrotation
									End Site
									{
OFFSET 0 -0.489030 0.489030
									}
								}
							}
						}
					}
				}
			}
		}
	}
}
MOTION
Frames: 6
Frame Time: 0.008333333333333333
16.323749 12.984184 -3.094320 18.203045 -37.539611 -332.817553 0.000000 0.000000 0.000000 3.752110 -4.890616 -90.694919 14.493290 19.252453 73.701978 -0.018029 -3.569295 4.184211 1.099002 -6.610481 -18.584322 0.000000 0.000000 0.000000 3.568046 0.816335 -94.188462 -21.766796 -19.923052 95.172581 -2.039356 -7.376496 -30.437233 -0.808944 5.731907 -16.010621 5.884039 -6.284986 27.240778 0.531778 -6.369031 4.762490 -0.490992 -3.145075 -10.261499 -2.630118 4.672456 -9.898253 -10.451186 6.210942 -6.503182 -2.689238 3.109447 -0.106276 0.000000 0.000000 0.000000 8.605469 -0.714052 -8.790504 45.061524 -50.797613 22.286698 36.603041 -35.498962 -39.240494 0.000000 0.000000 0.000000 -7.125000 0.000000 0.000000 2.556625 75.461624 -1.837796 0.000000 0.000000 0.000000 -37.614540 14.550976 21.257907 -25.895364 -37.104588 -8.824773 -19.192630 -16.099078 -25.652537 0.000000 0.000000 0.000000 7.125000 0.000000 0.000000 6.364796 3.170148 6.041961
16.228767 13.071079 -3.119786 16.730272 -36.204403 -332.227217 0.000000 0.000000 0.000000 1.949743 -4.198543 -91.393053 14.817891 19.342499 74.686771 -0.039706 -4.189065 3.942281 1.290332 -7.193304 -20.291139 0.000000 0.000000 0.000000 4.145441 1.663765 -92.216259 -21.535292 -19.942781 94.493247 -1.994945 -7.301381 -30.114595 -0.878642 5.972809 -16.706485 5.165987 -5.845525 27.271484 0.827720 -5.981606 4.831698 0.092184 -2.938746 -10.053364 -3.138612 4.939169 -10.015334 -10.732423 6.616102 -6.582149 -2.688072 3.325981 -0.114130 0.000000 0.000000 0.000000 8.414999 -0.621991 -8.433142 44.859799 -50.699589 22.130201 36.275227 -35.139742 -38.956482 0.000000 0.000000 0.000000 -7.125000 0.000000 0.000000 2.179484 75.052594 -1.539305 0.000000 0.000000 0.000000 -38.579850 14.865980 21.436898 -25.753950 -36.964765 -8.739344 -19.028148 -16.217579 -25.870927 0.000000 0.000000 0.000000 7.125000 0.000000 0.000000 6.486035 2.972895 6.179973
16.122946 13.147999 -3.130644 15.311886 -34.769005 -331.635028 0.000000 0.000000 0.000000 0.061239 -3.464405 -92.292155 15.113986 19.413799 75.577119 -0.054310 -4.616175 3.949468 1.421653 -7.525373 -21.288531 0.000000 0.000000 0.000000 4.838902 2.496308 -90.414232 -21.308854 -19.956735 93.829912 -1.937408 -7.118601 -29.636792 -0.960569 6.230482 -17.457941 3.516078 -5.839408 27.443674 2.006133 -6.287143 4.610497 2.474739 -3.006643 -10.070874 -5.895519 5.688981 -10.120124 -10.315138 7.894870 -6.657348 -2.071186 4.036301 -0.239717 0.000000 0.000000 0.000000 6.182765 0.309148 -5.787370 44.924332 -50.731282 22.180168 36.091644 -34.554970 -39.491937 0.000000 0.000000 0.000000 -7.125000 0.000000 0.000000 1.245707 75.535023 -0.878875 0.000000 0.000000 0.000000 -41.990650 13.616267 23.757597 -25.716217 -36.927108 -8.716673 -18.620879 -16.654132 -25.304811 0.000000 0.000000 0.000000 7.125000 0.000000 0.000000 6.683992 3.617192 6.288089
16.017124 13.224918 -3.141501 13.893501 -33.333607 -331.042840 0.000000 0.000000 0.000000 -1.827266 -2.730267 -93.191258 15.410080 19.485099 76.467466 -0.068914 -5.043284 3.956656 1.552975 -7.857442 -22.285924 0.000000 0.000000 0.000000 5.532363 3.328851 -88.612204 -21.082415 -19.970689 93.166576 -1.879871 -6.935822 -29.158988 -1.042497 6.488155 -18.209397 1.866170 -5.833291 27.615864 3.184547 -6.592680 4.389296 4.857295 -3.074540 -10.088383 -8.652427 6.438794 -10.224913 -9.897854 9.173638 -6.732547 -1.454301 4.746622 -0.365304 0.000000 0.000000 0.000000 3.950531 1.240287 -3.141598 44.988865 -50.762975 22.230135 35.908062 -33.970198 -40.027392 0.000000 0.000000 0.000000 -7.125000 0.000000 0.000000 0.311930 76.017452 -0.218445 0.000000 0.000000 0.000000 -45.401451 12.366554 26.078296 -25.678483 -36.889451 -8.694003 -18.213611 -17.090685 -24.738696 0.000000 0.000000 0.000000 7.125000 0.000000 0.000000 6.881949 4.261488 6.396204
15.905088 13.297431 -3.143279 12.593144 -31.839217 -330.501556 0.000000 0.000000 0.000000 -3.787985 -2.020523 -94.003866 15.650179 19.539012 77.186985 -0.076665 -5.267590 3.968691 1.613801 -8.010352 -22.745642 0.000000 0.000000 0.000000 6.246495 4.123050 -86.923313 -20.861596 -19.980831 92.520121 -1.828064 -6.663155 -28.659016 -1.090400 6.635842 -18.641079 1.545384 -5.177399 27.272019 3.164537 -5.866811 4.413695 4.739740 -2.732202 -9.857098 -7.996947 6.433452 -10.406368 -9.923882 9.154377 -6.389687 -1.559427 4.705798 -0.190001 0.000000 0.000000 0.000000 4.663705 1.289759 -3.622265 44.539347 -50.533004 21.884785 35.840327 -34.078658 -40.357310 0.000000 0.000000 0.000000 -7.125000 0.000000 0.000000 -0.193850 76.329538 0.143431 0.000000 0.000000 0.000000 -45.089652 13.051600 24.957321 -25.658159 -36.869159 -8.681778 -17.140812 -16.821732 -24.433120 0.000000 0.000000 0.000000 7.125000 0.000000 0.000000 7.514713 4.728544 6.927072
15.788485 13.366704 -3.138386 11.379521 -30.301476 -329.997679 0.000000 0.000000 0.000000 -5.801770 -1.328706 -94.752914 15.849130 19.580147 77.780970 -0.079379 -5.342866 3.984289 1.622823 -8.031609 -22.810251 0.000000 0.000000 0.000000 6.975816 4.889072 -85.317561 -20.644906 -19.988171 91.886070 -1.780467 -6.324433 -28.142753 -1.113300 6.702707 -18.837774 2.201303 -4.044021 26.548968 2.263867 -4.383013 4.618571 2.784982 -2.088402 -9.442987 -4.833880 5.873185 -10.644161 -10.275678 8.181261 -5.739618 -2.195122 4.112998 0.206410 0.000000 0.000000 0.000000 7.541306 0.691339 -6.400390 43.712080 -50.110750 21.248937 35.857722 -34.696537 -40.536190 0.000000 0.000000 0.000000 -7.125000 0.000000 0.000000 -0.385116 76.516446 0.285916 0.000000 0.000000 0.000000 -42.042309 15.158400 21.307237 -25.650627 -36.861627 -8.677228 -15.578947 -16.034339 -24.319003 0.000000 0.000000 0.000000 7.125000 0.000000 0.000000 8.466993 5.065353 7.768600
